<svg xmlns="http://www.w3.org/2000/svg" xmlns:xlink="http://www.w3.org/1999/xlink" width="500" zoomAndPan="magnify" viewBox="0 0 375 374.999991" height="500" preserveAspectRatio="xMidYMid meet" version="1.0"><defs><g/><clipPath id="c588a52220"><path d="M 4.550781 121 L 59 121 L 59 230 L 4.550781 230 Z M 4.550781 121 " clip-rule="nonzero"/></clipPath><clipPath id="6dfd4fb6ea"><path d="M 61 116.742188 L 73 116.742188 L 73 128 L 61 128 Z M 61 116.742188 " clip-rule="nonzero"/></clipPath><clipPath id="cdddf72fb7"><path d="M 103 168 L 114.050781 168 L 114.050781 179 L 103 179 Z M 103 168 " clip-rule="nonzero"/></clipPath><clipPath id="6268610243"><path d="M 60 221 L 72 221 L 72 232.242188 L 60 232.242188 Z M 60 221 " clip-rule="nonzero"/></clipPath></defs><g clip-path="url(#c588a52220)"><path fill="#3c81f6" d="M 33.585938 214.820312 C 33.882812 214.820312 34.179688 214.886719 34.453125 215.023438 C 35.03125 215.316406 35.433594 215.878906 35.519531 216.523438 C 36.164062 221.410156 40.332031 225.09375 45.207031 225.09375 C 50.625 225.09375 55.03125 220.664062 55.03125 215.222656 L 55.03125 135.433594 C 55.03125 129.988281 50.625 125.558594 45.207031 125.558594 C 40.332031 125.558594 36.164062 129.242188 35.519531 134.132812 C 35.433594 134.773438 35.03125 135.335938 34.453125 135.628906 C 33.878906 135.917969 33.1875 135.902344 32.625 135.578125 C 31.085938 134.707031 29.476562 134.261719 27.828125 134.261719 C 22.40625 134.261719 18 138.691406 18 144.136719 C 18 146.4375 18.8125 148.621094 20.34375 150.453125 C 20.84375 151.050781 20.945312 151.890625 20.601562 152.585938 C 20.253906 153.289062 19.488281 153.726562 18.753906 153.675781 C 18.699219 153.671875 18.382812 153.640625 18.324219 153.628906 C 18.316406 153.628906 18.308594 153.628906 18.304688 153.628906 C 12.851562 153.628906 8.449219 158.054688 8.449219 163.492188 C 8.449219 168.9375 12.859375 173.367188 18.277344 173.367188 C 19.355469 173.367188 20.230469 174.242188 20.230469 175.328125 C 20.230469 176.410156 19.355469 177.289062 18.277344 177.289062 C 12.859375 177.289062 8.449219 181.71875 8.449219 187.160156 C 8.449219 192.605469 12.859375 197.03125 18.277344 197.03125 C 18.464844 197 18.609375 196.984375 18.753906 196.976562 C 19.496094 196.910156 20.253906 197.367188 20.601562 198.066406 C 20.945312 198.765625 20.84375 199.601562 20.34375 200.199219 C 18.8125 202.03125 18 204.214844 18 206.515625 C 18 211.960938 22.40625 216.390625 27.828125 216.390625 C 29.476562 216.390625 31.085938 215.949219 32.625 215.074219 C 32.921875 214.90625 33.253906 214.820312 33.585938 214.820312 Z M 45.207031 229.015625 C 39.25 229.015625 34.050781 225.09375 32.222656 219.554688 C 30.796875 220.058594 29.328125 220.3125 27.828125 220.3125 C 20.257812 220.3125 14.097656 214.125 14.097656 206.515625 C 14.097656 204.464844 14.550781 202.480469 15.425781 200.65625 C 9.222656 199.332031 4.546875 193.785156 4.546875 187.160156 C 4.546875 182.140625 7.226562 177.742188 11.226562 175.328125 C 7.226562 172.914062 4.546875 168.511719 4.546875 163.492188 C 4.546875 156.867188 9.222656 151.320312 15.425781 149.996094 C 14.550781 148.171875 14.097656 146.1875 14.097656 144.136719 C 14.097656 136.53125 20.257812 130.339844 27.828125 130.339844 C 29.328125 130.339844 30.796875 130.59375 32.222656 131.097656 C 34.050781 125.5625 39.25 121.636719 45.207031 121.636719 C 52.777344 121.636719 58.9375 127.828125 58.9375 135.433594 L 58.9375 215.222656 C 58.9375 222.828125 52.777344 229.015625 45.207031 229.015625 " fill-opacity="1" fill-rule="nonzero"/></g><path fill="#3c81f6" d="M 33.621094 164.554688 C 32.542969 164.554688 31.671875 163.675781 31.671875 162.59375 C 31.671875 154.285156 18.332031 153.625 18.195312 153.617188 C 17.121094 153.570312 16.285156 152.660156 16.328125 151.578125 C 16.371094 150.492188 17.148438 149.601562 18.363281 149.699219 C 19.0625 149.730469 35.574219 150.570312 35.574219 162.59375 C 35.574219 163.675781 34.703125 164.554688 33.621094 164.554688 " fill-opacity="1" fill-rule="nonzero"/><path fill="#3c81f6" d="M 36.710938 194.039062 C 35.632812 194.039062 34.757812 193.164062 34.757812 192.078125 C 34.757812 188.046875 36.128906 184.691406 38.832031 182.101562 C 45.160156 176.039062 56.597656 176.523438 57.074219 176.539062 C 58.15625 176.589844 58.980469 177.507812 58.933594 178.589844 C 58.882812 179.671875 57.949219 180.546875 56.890625 180.457031 C 56.789062 180.46875 46.621094 180.046875 41.519531 184.945312 C 39.597656 186.792969 38.664062 189.125 38.664062 192.078125 C 38.664062 193.164062 37.789062 194.039062 36.710938 194.039062 " fill-opacity="1" fill-rule="nonzero"/><g clip-path="url(#6dfd4fb6ea)"><path fill="#9134ea" d="M 67.25 120.679688 C 66.507812 120.679688 65.902344 121.289062 65.902344 122.039062 C 65.902344 122.789062 66.507812 123.394531 67.25 123.394531 C 67.996094 123.394531 68.601562 122.789062 68.601562 122.039062 C 68.601562 121.289062 67.996094 120.679688 67.25 120.679688 Z M 67.25 127.320312 C 64.351562 127.320312 61.996094 124.949219 61.996094 122.039062 C 61.996094 119.128906 64.351562 116.757812 67.25 116.757812 C 70.148438 116.757812 72.507812 119.128906 72.507812 122.039062 C 72.507812 124.949219 70.148438 127.320312 67.25 127.320312 " fill-opacity="1" fill-rule="nonzero"/></g><path fill="#9134ea" d="M 82.371094 130.96875 C 81.621094 130.96875 81.015625 131.574219 81.015625 132.324219 C 81.015625 133.074219 81.621094 133.683594 82.371094 133.683594 C 83.113281 133.683594 83.71875 133.074219 83.71875 132.324219 C 83.71875 131.574219 83.113281 130.96875 82.371094 130.96875 Z M 82.371094 137.605469 C 79.472656 137.605469 77.113281 135.234375 77.113281 132.324219 C 77.113281 129.414062 79.472656 127.046875 82.371094 127.046875 C 85.265625 127.046875 87.621094 129.414062 87.621094 132.324219 C 87.621094 135.234375 85.265625 137.605469 82.371094 137.605469 " fill-opacity="1" fill-rule="nonzero"/><path fill="#9134ea" d="M 97.914062 142.265625 C 97.171875 142.265625 96.566406 142.875 96.566406 143.625 C 96.566406 144.371094 97.171875 144.980469 97.914062 144.980469 C 98.664062 144.980469 99.269531 144.371094 99.269531 143.625 C 99.269531 142.875 98.664062 142.265625 97.914062 142.265625 Z M 97.914062 148.902344 C 95.019531 148.902344 92.664062 146.535156 92.664062 143.625 C 92.664062 140.710938 95.019531 138.34375 97.914062 138.34375 C 100.8125 138.34375 103.171875 140.710938 103.171875 143.625 C 103.171875 146.535156 100.8125 148.902344 97.914062 148.902344 " fill-opacity="1" fill-rule="nonzero"/><g clip-path="url(#cdddf72fb7)"><path fill="#9134ea" d="M 108.792969 172.316406 C 108.046875 172.316406 107.4375 172.925781 107.4375 173.671875 C 107.4375 174.421875 108.046875 175.03125 108.792969 175.03125 C 109.535156 175.03125 110.140625 174.421875 110.140625 173.671875 C 110.140625 172.925781 109.535156 172.316406 108.792969 172.316406 Z M 108.792969 178.953125 C 105.894531 178.953125 103.535156 176.582031 103.535156 173.671875 C 103.535156 170.761719 105.894531 168.394531 108.792969 168.394531 C 111.6875 168.394531 114.042969 170.761719 114.042969 173.671875 C 114.042969 176.582031 111.6875 178.953125 108.792969 178.953125 " fill-opacity="1" fill-rule="nonzero"/></g><path fill="#9134ea" d="M 79.0625 165.109375 C 78.320312 165.109375 77.714844 165.71875 77.714844 166.464844 C 77.714844 167.214844 78.320312 167.824219 79.0625 167.824219 C 79.8125 167.824219 80.417969 167.214844 80.417969 166.464844 C 80.417969 165.71875 79.8125 165.109375 79.0625 165.109375 Z M 79.0625 171.746094 C 76.167969 171.746094 73.8125 169.378906 73.8125 166.464844 C 73.8125 163.554688 76.167969 161.1875 79.0625 161.1875 C 81.960938 161.1875 84.320312 163.554688 84.320312 166.464844 C 84.320312 169.378906 81.960938 171.746094 79.0625 171.746094 " fill-opacity="1" fill-rule="nonzero"/><path fill="#9134ea" d="M 95.578125 161.183594 C 94.835938 161.183594 94.230469 161.792969 94.230469 162.542969 C 94.230469 163.285156 94.835938 163.898438 95.578125 163.898438 C 96.324219 163.898438 96.933594 163.285156 96.933594 162.542969 C 96.933594 161.792969 96.324219 161.183594 95.578125 161.183594 Z M 95.578125 167.820312 C 92.679688 167.820312 90.324219 165.453125 90.324219 162.542969 C 90.324219 159.628906 92.679688 157.261719 95.578125 157.261719 C 98.476562 157.261719 100.835938 159.628906 100.835938 162.542969 C 100.835938 165.453125 98.476562 167.820312 95.578125 167.820312 " fill-opacity="1" fill-rule="nonzero"/><path fill="#9134ea" d="M 101.222656 188.609375 C 100.472656 188.609375 99.867188 189.21875 99.867188 189.96875 C 99.867188 190.714844 100.472656 191.324219 101.222656 191.324219 C 101.964844 191.324219 102.570312 190.714844 102.570312 189.96875 C 102.570312 189.21875 101.964844 188.609375 101.222656 188.609375 Z M 101.222656 195.25 C 98.324219 195.25 95.964844 192.878906 95.964844 189.96875 C 95.964844 187.058594 98.324219 184.6875 101.222656 184.6875 C 104.117188 184.6875 106.472656 187.058594 106.472656 189.96875 C 106.472656 192.878906 104.117188 195.25 101.222656 195.25 " fill-opacity="1" fill-rule="nonzero"/><path fill="#9134ea" d="M 85.945312 186.960938 C 85.203125 186.960938 84.597656 187.570312 84.597656 188.316406 C 84.597656 189.066406 85.203125 189.675781 85.945312 189.675781 C 86.6875 189.675781 87.292969 189.066406 87.292969 188.316406 C 87.292969 187.570312 86.6875 186.960938 85.945312 186.960938 Z M 85.945312 193.597656 C 83.046875 193.597656 80.691406 191.226562 80.691406 188.316406 C 80.691406 185.40625 83.046875 183.039062 85.945312 183.039062 C 88.84375 183.039062 91.199219 185.40625 91.199219 188.316406 C 91.199219 191.226562 88.84375 193.597656 85.945312 193.597656 " fill-opacity="1" fill-rule="nonzero"/><path fill="#9134ea" d="M 80.722656 214.480469 L 80.761719 214.480469 Z M 82.640625 215.824219 C 82.363281 215.824219 82.089844 215.910156 81.859375 216.078125 C 81.5625 216.289062 81.367188 216.601562 81.308594 216.960938 C 81.25 217.316406 81.332031 217.675781 81.542969 217.972656 C 81.976562 218.582031 82.828125 218.71875 83.429688 218.285156 C 83.722656 218.074219 83.917969 217.761719 83.976562 217.40625 C 84.035156 217.050781 83.949219 216.6875 83.742188 216.394531 C 83.527344 216.097656 83.21875 215.902344 82.863281 215.84375 C 82.789062 215.832031 82.710938 215.824219 82.640625 215.824219 Z M 82.648438 222.460938 C 81.007812 222.460938 79.390625 221.691406 78.367188 220.253906 C 77.550781 219.109375 77.226562 217.710938 77.457031 216.316406 C 77.6875 214.925781 78.441406 213.707031 79.585938 212.886719 C 80.730469 212.066406 82.105469 211.746094 83.503906 211.972656 C 84.890625 212.207031 86.101562 212.964844 86.917969 214.113281 C 87.734375 215.257812 88.058594 216.65625 87.828125 218.046875 C 87.59375 219.4375 86.839844 220.65625 85.703125 221.476562 C 84.773438 222.140625 83.707031 222.460938 82.648438 222.460938 " fill-opacity="1" fill-rule="nonzero"/><path fill="#9134ea" d="M 97.867188 200.023438 L 97.902344 200.023438 Z M 99.785156 201.367188 C 99.511719 201.367188 99.238281 201.445312 99.003906 201.617188 C 98.394531 202.050781 98.253906 202.902344 98.691406 203.511719 C 99.125 204.125 99.964844 204.253906 100.578125 203.824219 C 101.179688 203.390625 101.320312 202.539062 100.886719 201.933594 C 100.621094 201.5625 100.207031 201.367188 99.785156 201.367188 Z M 99.796875 208 C 98.152344 208 96.535156 207.230469 95.511719 205.792969 C 93.828125 203.421875 94.375 200.117188 96.730469 198.425781 C 99.089844 196.738281 102.371094 197.285156 104.0625 199.652344 C 105.746094 202.019531 105.199219 205.324219 102.84375 207.019531 C 101.917969 207.679688 100.851562 208 99.796875 208 " fill-opacity="1" fill-rule="nonzero"/><g clip-path="url(#6268610243)"><path fill="#9134ea" d="M 65.28125 225.84375 C 64.984375 226.054688 64.792969 226.367188 64.734375 226.722656 C 64.671875 227.082031 64.757812 227.441406 64.96875 227.738281 C 65.402344 228.347656 66.246094 228.488281 66.851562 228.054688 C 67.144531 227.84375 67.335938 227.527344 67.398438 227.171875 C 67.457031 226.8125 67.375 226.453125 67.164062 226.15625 C 66.734375 225.546875 65.882812 225.410156 65.28125 225.84375 Z M 66.082031 232.226562 C 65.785156 232.226562 65.496094 232.207031 65.203125 232.15625 C 63.820312 231.925781 62.605469 231.164062 61.789062 230.019531 C 60.976562 228.871094 60.652344 227.472656 60.878906 226.082031 C 61.113281 224.691406 61.867188 223.472656 63.007812 222.652344 C 63.007812 222.652344 63.011719 222.652344 63.011719 222.648438 C 65.371094 220.957031 68.65625 221.511719 70.339844 223.878906 C 71.15625 225.023438 71.476562 226.421875 71.25 227.8125 C 71.019531 229.203125 70.265625 230.425781 69.121094 231.242188 C 68.21875 231.890625 67.164062 232.226562 66.082031 232.226562 " fill-opacity="1" fill-rule="nonzero"/></g><path fill="#9134ea" d="M 67.25 145.585938 L 56.984375 145.585938 C 55.90625 145.585938 55.03125 144.707031 55.03125 143.625 C 55.03125 142.539062 55.90625 141.664062 56.984375 141.664062 L 65.296875 141.664062 L 65.296875 125.359375 C 65.296875 124.273438 66.171875 123.394531 67.25 123.394531 C 68.328125 123.394531 69.203125 124.273438 69.203125 125.359375 L 69.203125 143.625 C 69.203125 144.707031 68.328125 145.585938 67.25 145.585938 " fill-opacity="1" fill-rule="nonzero"/><path fill="#9134ea" d="M 69.785156 156 L 56.984375 156 C 55.90625 156 55.03125 155.121094 55.03125 154.039062 C 55.03125 152.953125 55.90625 152.078125 56.984375 152.078125 L 68.664062 152.078125 L 79.027344 134.195312 C 79.566406 133.253906 80.765625 132.941406 81.695312 133.484375 C 82.625 134.03125 82.941406 135.230469 82.394531 136.167969 L 71.46875 155.023438 C 71.125 155.628906 70.480469 156 69.785156 156 " fill-opacity="1" fill-rule="nonzero"/><path fill="#9134ea" d="M 75.761719 168.425781 L 56.984375 168.425781 C 55.90625 168.425781 55.03125 167.550781 55.03125 166.464844 C 55.03125 165.382812 55.90625 164.503906 56.984375 164.503906 L 75.761719 164.503906 C 76.839844 164.503906 77.714844 165.382812 77.714844 166.464844 C 77.714844 167.550781 76.839844 168.425781 75.761719 168.425781 " fill-opacity="1" fill-rule="nonzero"/><path fill="#9134ea" d="M 85.210938 158.351562 C 84.691406 158.351562 84.195312 158.144531 83.828125 157.777344 L 73.1875 147.085938 C 72.421875 146.316406 72.421875 145.078125 73.1875 144.3125 C 73.949219 143.542969 75.183594 143.542969 75.945312 144.3125 L 85.210938 153.617188 L 94.199219 144.582031 C 94.960938 143.816406 96.195312 143.816406 96.957031 144.582031 C 97.722656 145.351562 97.722656 146.589844 96.957031 147.355469 L 86.589844 157.777344 C 86.222656 158.144531 85.726562 158.351562 85.210938 158.351562 " fill-opacity="1" fill-rule="nonzero"/><path fill="#9134ea" d="M 82.644531 190.277344 L 69.785156 190.277344 C 68.707031 190.277344 67.832031 189.402344 67.832031 188.316406 L 67.832031 184.105469 L 56.984375 184.105469 C 55.90625 184.105469 55.03125 183.226562 55.03125 182.144531 C 55.03125 181.058594 55.90625 180.183594 56.984375 180.183594 L 69.785156 180.183594 C 70.863281 180.183594 71.738281 181.058594 71.738281 182.144531 L 71.738281 186.355469 L 82.644531 186.355469 C 83.722656 186.355469 84.597656 187.234375 84.597656 188.316406 C 84.597656 189.402344 83.722656 190.277344 82.644531 190.277344 " fill-opacity="1" fill-rule="nonzero"/><path fill="#9134ea" d="M 80.722656 216.445312 C 80.222656 216.445312 79.722656 216.253906 79.34375 215.871094 L 68.933594 205.414062 L 56.984375 205.414062 C 55.90625 205.414062 55.03125 204.535156 55.03125 203.453125 C 55.03125 202.367188 55.90625 201.492188 56.984375 201.492188 L 69.742188 201.492188 C 70.261719 201.492188 70.757812 201.699219 71.125 202.066406 L 82.101562 213.097656 C 82.863281 213.863281 82.863281 215.101562 82.101562 215.871094 C 81.722656 216.253906 81.222656 216.445312 80.722656 216.445312 " fill-opacity="1" fill-rule="nonzero"/><path fill="#9134ea" d="M 75.234375 210.929688 C 74.734375 210.929688 74.234375 210.738281 73.851562 210.355469 C 73.089844 209.585938 73.089844 208.347656 73.851562 207.582031 L 80.664062 200.738281 C 81.03125 200.367188 81.527344 200.164062 82.042969 200.164062 L 96.488281 200.164062 C 97.570312 200.164062 98.441406 201.039062 98.441406 202.121094 C 98.441406 203.207031 97.570312 204.085938 96.488281 204.085938 L 82.855469 204.085938 L 76.613281 210.355469 C 76.230469 210.738281 75.730469 210.929688 75.234375 210.929688 " fill-opacity="1" fill-rule="nonzero"/><path fill="#9134ea" d="M 103.511719 181.945312 L 77.785156 181.945312 C 77.269531 181.945312 76.773438 181.738281 76.40625 181.371094 L 71.023438 175.960938 L 56.984375 175.960938 C 55.90625 175.960938 55.03125 175.082031 55.03125 174 C 55.03125 172.917969 55.90625 172.039062 56.984375 172.039062 L 71.832031 172.039062 C 72.351562 172.039062 72.847656 172.246094 73.210938 172.613281 L 78.597656 178.023438 L 102.703125 178.023438 L 105.574219 175.140625 C 106.335938 174.375 107.574219 174.375 108.335938 175.140625 C 109.097656 175.90625 109.097656 177.148438 108.335938 177.914062 L 104.890625 181.371094 C 104.527344 181.738281 104.03125 181.945312 103.511719 181.945312 " fill-opacity="1" fill-rule="nonzero"/><path fill="#9134ea" d="M 66.0625 225.597656 C 64.984375 225.597656 64.113281 224.71875 64.113281 223.636719 L 64.113281 214.367188 L 56.984375 214.367188 C 55.90625 214.367188 55.03125 213.488281 55.03125 212.40625 C 55.03125 211.324219 55.90625 210.445312 56.984375 210.445312 L 66.0625 210.445312 C 67.144531 210.445312 68.015625 211.324219 68.015625 212.40625 L 68.015625 223.636719 C 68.015625 224.71875 67.144531 225.597656 66.0625 225.597656 " fill-opacity="1" fill-rule="nonzero"/><g fill="#3c81f6" fill-opacity="1"><g transform="translate(123.939517, 170.160805)"><g><path d="M 9.089844 -16.808594 C 8.371094 -17.460938 7.652344 -18.117188 6.996094 -18.902344 C 6.34375 -19.621094 5.691406 -20.40625 5.167969 -21.253906 C 4.578125 -22.105469 4.121094 -23.019531 3.792969 -24.066406 C 3.402344 -25.046875 3.269531 -26.160156 3.269531 -27.335938 C 3.269531 -28.382812 3.464844 -29.429688 3.859375 -30.34375 C 4.25 -31.261719 4.839844 -32.113281 5.558594 -32.832031 C 6.214844 -33.484375 7.0625 -34.074219 7.980469 -34.464844 C 8.894531 -34.859375 9.941406 -35.121094 11.050781 -35.121094 C 12.097656 -35.121094 13.078125 -34.921875 13.996094 -34.53125 C 14.910156 -34.140625 15.761719 -33.550781 16.480469 -32.894531 C 17.199219 -32.242188 17.789062 -31.390625 18.246094 -30.476562 C 18.640625 -29.5625 18.902344 -28.578125 18.902344 -27.535156 L 18.902344 -27.074219 C 18.902344 -26.75 18.703125 -26.617188 18.441406 -26.617188 L 15.566406 -26.617188 C 15.238281 -26.617188 15.109375 -26.75 15.109375 -27.074219 L 15.109375 -27.535156 C 15.109375 -28.515625 14.714844 -29.363281 13.929688 -30.148438 C 13.144531 -30.867188 12.164062 -31.261719 11.117188 -31.261719 C 10.007812 -31.261719 9.089844 -30.867188 8.304688 -30.085938 C 7.519531 -29.300781 7.195312 -28.382812 7.195312 -27.335938 C 7.195312 -26.8125 7.257812 -26.289062 7.390625 -25.769531 C 7.519531 -25.246094 7.78125 -24.65625 8.175781 -24 C 8.566406 -23.347656 9.089844 -22.5625 9.808594 -21.777344 C 10.464844 -20.992188 11.378906 -20.011719 12.492188 -18.902344 L 13.078125 -18.3125 C 13.734375 -17.65625 14.453125 -16.9375 15.171875 -16.21875 C 15.828125 -15.433594 16.480469 -14.648438 17.003906 -13.800781 C 17.527344 -12.949219 17.984375 -12.035156 18.378906 -11.050781 C 18.703125 -10.007812 18.902344 -8.960938 18.902344 -7.78125 C 18.902344 -6.671875 18.640625 -5.625 18.246094 -4.707031 C 17.855469 -3.792969 17.265625 -2.941406 16.613281 -2.289062 C 15.890625 -1.570312 15.042969 -0.980469 14.125 -0.589844 C 13.210938 -0.195312 12.164062 0 11.117188 0 C 10.070312 0 9.023438 -0.195312 8.109375 -0.589844 C 7.195312 -0.980469 6.34375 -1.503906 5.625 -2.160156 C 4.90625 -2.8125 4.316406 -3.664062 3.925781 -4.578125 C 3.464844 -5.492188 3.269531 -6.539062 3.269531 -7.585938 L 3.269531 -8.042969 C 3.269531 -8.304688 3.402344 -8.503906 3.726562 -8.503906 L 6.605469 -8.503906 C 6.867188 -8.503906 7.0625 -8.304688 7.0625 -8.042969 L 7.0625 -7.585938 C 7.0625 -6.539062 7.457031 -5.691406 8.242188 -4.96875 C 9.023438 -4.1875 9.941406 -3.859375 11.050781 -3.859375 C 12.097656 -3.859375 13.015625 -4.1875 13.800781 -4.96875 C 14.585938 -5.753906 14.976562 -6.671875 14.976562 -7.78125 C 14.976562 -8.304688 14.910156 -8.828125 14.78125 -9.351562 C 14.648438 -9.875 14.386719 -10.464844 13.996094 -11.117188 C 13.601562 -11.773438 13.015625 -12.492188 12.359375 -13.339844 C 11.707031 -14.125 10.792969 -15.109375 9.679688 -16.21875 Z M 9.089844 -16.808594 "/></g></g></g><g fill="#3c81f6" fill-opacity="1"><g transform="translate(146.041128, 170.160805)"><g><path d="M 7.0625 -26.09375 L 6.933594 -1.898438 C 6.933594 -1.308594 6.734375 -0.851562 6.410156 -0.523438 C 6.015625 -0.128906 5.558594 0 5.035156 0 C 4.445312 0 3.988281 -0.128906 3.664062 -0.523438 C 3.269531 -0.851562 3.140625 -1.308594 3.140625 -1.898438 L 3.140625 -33.746094 C 3.140625 -34.726562 3.597656 -35.25 4.644531 -35.25 C 5.101562 -35.25 5.558594 -35.121094 5.953125 -34.859375 C 6.34375 -34.597656 6.605469 -34.335938 6.867188 -33.941406 L 13.734375 -21.910156 L 20.601562 -33.941406 C 21.125 -34.792969 21.84375 -35.25 22.824219 -35.25 C 23.804688 -35.25 24.328125 -34.726562 24.328125 -33.746094 L 24.328125 -1.898438 C 24.328125 -1.308594 24.132812 -0.851562 23.804688 -0.523438 C 23.414062 -0.128906 22.957031 0 22.433594 0 C 21.84375 0 21.386719 -0.128906 21.058594 -0.523438 C 20.667969 -0.851562 20.535156 -1.308594 20.535156 -1.898438 L 20.535156 -26.09375 L 16.675781 -19.226562 C 15.761719 -17.65625 14.78125 -16.9375 13.800781 -16.9375 C 12.753906 -16.9375 11.835938 -17.65625 10.988281 -19.226562 Z M 7.0625 -26.09375 "/></g></g></g><g fill="#3c81f6" fill-opacity="1"><g transform="translate(173.700836, 170.160805)"><g><path d="M 13.078125 -24.917969 L 10.203125 -12.753906 L 15.890625 -12.753906 Z M 3.726562 -1.898438 L 11.25 -33.8125 C 11.445312 -34.726562 12.035156 -35.25 13.078125 -35.25 C 13.996094 -35.25 14.585938 -34.726562 14.847656 -33.8125 L 22.367188 -1.898438 C 22.496094 -1.308594 22.433594 -0.851562 22.171875 -0.523438 C 21.910156 -0.128906 21.453125 0 20.863281 0 C 20.207031 0 19.683594 -0.128906 19.292969 -0.523438 C 18.835938 -0.851562 18.574219 -1.308594 18.441406 -1.898438 L 16.808594 -8.960938 L 9.285156 -8.960938 L 7.652344 -1.898438 C 7.519531 -1.308594 7.195312 -0.851562 6.800781 -0.523438 C 6.34375 -0.128906 5.820312 0 5.230469 0 C 4.578125 0 4.1875 -0.128906 3.925781 -0.523438 C 3.664062 -0.851562 3.597656 -1.308594 3.726562 -1.898438 Z M 3.726562 -1.898438 "/></g></g></g><g fill="#3c81f6" fill-opacity="1"><g transform="translate(199.791189, 170.160805)"><g><path d="M 14.910156 -21.515625 L 14.910156 -26.683594 C 14.910156 -27.925781 14.453125 -29.039062 13.539062 -29.953125 C 12.621094 -30.867188 11.511719 -31.328125 10.269531 -31.328125 L 7.0625 -31.328125 L 7.0625 -16.875 L 10.269531 -16.875 C 11.511719 -16.875 12.621094 -17.332031 13.539062 -18.246094 C 14.453125 -19.164062 14.910156 -20.207031 14.910156 -21.515625 Z M 14.125 -13.929688 L 18.902344 -1.898438 C 19.097656 -1.308594 19.097656 -0.851562 18.902344 -0.523438 C 18.640625 -0.128906 18.246094 0 17.65625 0 C 17.003906 0 16.414062 -0.128906 15.890625 -0.523438 C 15.367188 -0.851562 14.976562 -1.308594 14.78125 -1.898438 L 10.332031 -13.078125 L 7.0625 -13.078125 L 7.0625 -1.898438 C 7.0625 -1.308594 6.867188 -0.851562 6.539062 -0.523438 C 6.148438 -0.128906 5.691406 0 5.167969 0 C 4.578125 0 4.121094 -0.128906 3.792969 -0.523438 C 3.402344 -0.851562 3.269531 -1.308594 3.269531 -1.898438 L 3.269531 -31.914062 C 3.269531 -32.894531 3.53125 -33.679688 4.121094 -34.269531 C 4.707031 -34.859375 5.492188 -35.183594 6.539062 -35.183594 L 10.269531 -35.183594 C 11.445312 -35.183594 12.492188 -34.921875 13.539062 -34.53125 C 14.585938 -34.074219 15.433594 -33.484375 16.21875 -32.699219 C 17.003906 -31.914062 17.59375 -31.066406 18.050781 -30.019531 C 18.441406 -28.972656 18.703125 -27.925781 18.703125 -26.75 L 18.703125 -21.515625 C 18.703125 -19.816406 18.3125 -18.3125 17.527344 -17.003906 C 16.742188 -15.695312 15.566406 -14.648438 14.125 -13.929688 Z M 14.125 -13.929688 "/></g></g></g><g fill="#3c81f6" fill-opacity="1"><g transform="translate(222.742858, 170.160805)"><g><path d="M 10.59375 0 C 10.007812 0 9.546875 -0.128906 9.222656 -0.523438 C 8.828125 -0.851562 8.699219 -1.308594 8.699219 -1.898438 L 8.632812 -31.390625 L 5.101562 -31.390625 C 4.511719 -31.390625 4.054688 -31.523438 3.726562 -31.914062 C 3.335938 -32.242188 3.203125 -32.699219 3.203125 -33.289062 C 3.203125 -33.8125 3.335938 -34.269531 3.726562 -34.660156 C 4.054688 -34.988281 4.511719 -35.183594 5.101562 -35.183594 L 16.023438 -35.183594 C 16.546875 -35.183594 17.003906 -34.988281 17.394531 -34.660156 C 17.722656 -34.269531 17.917969 -33.8125 17.917969 -33.289062 C 17.917969 -32.699219 17.722656 -32.242188 17.394531 -31.914062 C 17.003906 -31.523438 16.546875 -31.390625 16.023438 -31.390625 L 12.492188 -31.390625 L 12.492188 -1.898438 C 12.492188 -1.308594 12.296875 -0.851562 11.96875 -0.523438 C 11.574219 -0.128906 11.117188 0 10.59375 0 Z M 10.59375 0 "/></g></g></g><g fill="#3c81f6" fill-opacity="1"><g transform="translate(243.982533, 170.160805)"><g/></g></g><g fill="#3c81f6" fill-opacity="1"><g transform="translate(123.939517, 215.364106)"><g><path d="M 9.089844 -16.808594 C 8.371094 -17.460938 7.652344 -18.117188 6.996094 -18.902344 C 6.34375 -19.621094 5.691406 -20.40625 5.167969 -21.253906 C 4.578125 -22.105469 4.121094 -23.019531 3.792969 -24.066406 C 3.402344 -25.046875 3.269531 -26.160156 3.269531 -27.335938 C 3.269531 -28.382812 3.464844 -29.429688 3.859375 -30.34375 C 4.25 -31.261719 4.839844 -32.113281 5.558594 -32.832031 C 6.214844 -33.484375 7.0625 -34.074219 7.980469 -34.464844 C 8.894531 -34.859375 9.941406 -35.121094 11.050781 -35.121094 C 12.097656 -35.121094 13.078125 -34.921875 13.996094 -34.53125 C 14.910156 -34.140625 15.761719 -33.550781 16.480469 -32.894531 C 17.199219 -32.242188 17.789062 -31.390625 18.246094 -30.476562 C 18.640625 -29.5625 18.902344 -28.578125 18.902344 -27.535156 L 18.902344 -27.074219 C 18.902344 -26.75 18.703125 -26.617188 18.441406 -26.617188 L 15.566406 -26.617188 C 15.238281 -26.617188 15.109375 -26.75 15.109375 -27.074219 L 15.109375 -27.535156 C 15.109375 -28.515625 14.714844 -29.363281 13.929688 -30.148438 C 13.144531 -30.867188 12.164062 -31.261719 11.117188 -31.261719 C 10.007812 -31.261719 9.089844 -30.867188 8.304688 -30.085938 C 7.519531 -29.300781 7.195312 -28.382812 7.195312 -27.335938 C 7.195312 -26.8125 7.257812 -26.289062 7.390625 -25.769531 C 7.519531 -25.246094 7.78125 -24.65625 8.175781 -24 C 8.566406 -23.347656 9.089844 -22.5625 9.808594 -21.777344 C 10.464844 -20.992188 11.378906 -20.011719 12.492188 -18.902344 L 13.078125 -18.3125 C 13.734375 -17.65625 14.453125 -16.9375 15.171875 -16.21875 C 15.828125 -15.433594 16.480469 -14.648438 17.003906 -13.800781 C 17.527344 -12.949219 17.984375 -12.035156 18.378906 -11.050781 C 18.703125 -10.007812 18.902344 -8.960938 18.902344 -7.78125 C 18.902344 -6.671875 18.640625 -5.625 18.246094 -4.707031 C 17.855469 -3.792969 17.265625 -2.941406 16.613281 -2.289062 C 15.890625 -1.570312 15.042969 -0.980469 14.125 -0.589844 C 13.210938 -0.195312 12.164062 0 11.117188 0 C 10.070312 0 9.023438 -0.195312 8.109375 -0.589844 C 7.195312 -0.980469 6.34375 -1.503906 5.625 -2.160156 C 4.90625 -2.8125 4.316406 -3.664062 3.925781 -4.578125 C 3.464844 -5.492188 3.269531 -6.539062 3.269531 -7.585938 L 3.269531 -8.042969 C 3.269531 -8.304688 3.402344 -8.503906 3.726562 -8.503906 L 6.605469 -8.503906 C 6.867188 -8.503906 7.0625 -8.304688 7.0625 -8.042969 L 7.0625 -7.585938 C 7.0625 -6.539062 7.457031 -5.691406 8.242188 -4.96875 C 9.023438 -4.1875 9.941406 -3.859375 11.050781 -3.859375 C 12.097656 -3.859375 13.015625 -4.1875 13.800781 -4.96875 C 14.585938 -5.753906 14.976562 -6.671875 14.976562 -7.78125 C 14.976562 -8.304688 14.910156 -8.828125 14.78125 -9.351562 C 14.648438 -9.875 14.386719 -10.464844 13.996094 -11.117188 C 13.601562 -11.773438 13.015625 -12.492188 12.359375 -13.339844 C 11.707031 -14.125 10.792969 -15.109375 9.679688 -16.21875 Z M 9.089844 -16.808594 "/></g></g></g><g fill="#3c81f6" fill-opacity="1"><g transform="translate(146.041128, 215.364106)"><g><path d="M 18.835938 -7.78125 L 18.902344 -7.78125 C 18.902344 -6.671875 18.703125 -5.625 18.3125 -4.707031 C 17.917969 -3.792969 17.332031 -2.941406 16.675781 -2.289062 C 15.957031 -1.570312 15.109375 -0.980469 14.191406 -0.589844 C 13.277344 -0.195312 12.230469 0 11.183594 0 C 10.070312 0 9.023438 -0.195312 8.109375 -0.589844 C 7.195312 -0.980469 6.34375 -1.570312 5.691406 -2.289062 C 4.96875 -2.941406 4.382812 -3.792969 3.988281 -4.707031 C 3.597656 -5.625 3.402344 -6.671875 3.402344 -7.78125 L 3.402344 -33.289062 C 3.402344 -33.8125 3.53125 -34.269531 3.925781 -34.660156 C 4.25 -34.988281 4.707031 -35.183594 5.296875 -35.183594 C 5.820312 -35.183594 6.277344 -34.988281 6.671875 -34.660156 C 6.996094 -34.269531 7.195312 -33.8125 7.195312 -33.289062 L 7.195312 -7.78125 C 7.195312 -6.671875 7.519531 -5.753906 8.304688 -4.96875 C 9.089844 -4.1875 10.007812 -3.859375 11.117188 -3.859375 C 12.164062 -3.859375 13.078125 -4.1875 13.863281 -4.96875 C 14.648438 -5.753906 15.042969 -6.671875 15.042969 -7.78125 L 15.042969 -33.289062 C 15.042969 -33.8125 15.171875 -34.269531 15.566406 -34.660156 C 15.890625 -34.988281 16.351562 -35.183594 16.9375 -35.183594 C 17.460938 -35.183594 17.917969 -34.988281 18.3125 -34.660156 C 18.640625 -34.269531 18.835938 -33.8125 18.835938 -33.289062 Z M 18.835938 -7.78125 "/></g></g></g><g fill="#3c81f6" fill-opacity="1"><g transform="translate(168.142739, 215.364106)"><g><path d="M 7.0625 -26.09375 L 6.933594 -1.898438 C 6.933594 -1.308594 6.734375 -0.851562 6.410156 -0.523438 C 6.015625 -0.128906 5.558594 0 5.035156 0 C 4.445312 0 3.988281 -0.128906 3.664062 -0.523438 C 3.269531 -0.851562 3.140625 -1.308594 3.140625 -1.898438 L 3.140625 -33.746094 C 3.140625 -34.726562 3.597656 -35.25 4.644531 -35.25 C 5.101562 -35.25 5.558594 -35.121094 5.953125 -34.859375 C 6.34375 -34.597656 6.605469 -34.335938 6.867188 -33.941406 L 13.734375 -21.910156 L 20.601562 -33.941406 C 21.125 -34.792969 21.84375 -35.25 22.824219 -35.25 C 23.804688 -35.25 24.328125 -34.726562 24.328125 -33.746094 L 24.328125 -1.898438 C 24.328125 -1.308594 24.132812 -0.851562 23.804688 -0.523438 C 23.414062 -0.128906 22.957031 0 22.433594 0 C 21.84375 0 21.386719 -0.128906 21.058594 -0.523438 C 20.667969 -0.851562 20.535156 -1.308594 20.535156 -1.898438 L 20.535156 -26.09375 L 16.675781 -19.226562 C 15.761719 -17.65625 14.78125 -16.9375 13.800781 -16.9375 C 12.753906 -16.9375 11.835938 -17.65625 10.988281 -19.226562 Z M 7.0625 -26.09375 "/></g></g></g><g fill="#3c81f6" fill-opacity="1"><g transform="translate(195.802447, 215.364106)"><g><path d="M 7.0625 -26.09375 L 6.933594 -1.898438 C 6.933594 -1.308594 6.734375 -0.851562 6.410156 -0.523438 C 6.015625 -0.128906 5.558594 0 5.035156 0 C 4.445312 0 3.988281 -0.128906 3.664062 -0.523438 C 3.269531 -0.851562 3.140625 -1.308594 3.140625 -1.898438 L 3.140625 -33.746094 C 3.140625 -34.726562 3.597656 -35.25 4.644531 -35.25 C 5.101562 -35.25 5.558594 -35.121094 5.953125 -34.859375 C 6.34375 -34.597656 6.605469 -34.335938 6.867188 -33.941406 L 13.734375 -21.910156 L 20.601562 -33.941406 C 21.125 -34.792969 21.84375 -35.25 22.824219 -35.25 C 23.804688 -35.25 24.328125 -34.726562 24.328125 -33.746094 L 24.328125 -1.898438 C 24.328125 -1.308594 24.132812 -0.851562 23.804688 -0.523438 C 23.414062 -0.128906 22.957031 0 22.433594 0 C 21.84375 0 21.386719 -0.128906 21.058594 -0.523438 C 20.667969 -0.851562 20.535156 -1.308594 20.535156 -1.898438 L 20.535156 -26.09375 L 16.675781 -19.226562 C 15.761719 -17.65625 14.78125 -16.9375 13.800781 -16.9375 C 12.753906 -16.9375 11.835938 -17.65625 10.988281 -19.226562 Z M 7.0625 -26.09375 "/></g></g></g><g fill="#3c81f6" fill-opacity="1"><g transform="translate(223.462155, 215.364106)"><g><path d="M 13.078125 -24.917969 L 10.203125 -12.753906 L 15.890625 -12.753906 Z M 3.726562 -1.898438 L 11.25 -33.8125 C 11.445312 -34.726562 12.035156 -35.25 13.078125 -35.25 C 13.996094 -35.25 14.585938 -34.726562 14.847656 -33.8125 L 22.367188 -1.898438 C 22.496094 -1.308594 22.433594 -0.851562 22.171875 -0.523438 C 21.910156 -0.128906 21.453125 0 20.863281 0 C 20.207031 0 19.683594 -0.128906 19.292969 -0.523438 C 18.835938 -0.851562 18.574219 -1.308594 18.441406 -1.898438 L 16.808594 -8.960938 L 9.285156 -8.960938 L 7.652344 -1.898438 C 7.519531 -1.308594 7.195312 -0.851562 6.800781 -0.523438 C 6.34375 -0.128906 5.820312 0 5.230469 0 C 4.578125 0 4.1875 -0.128906 3.925781 -0.523438 C 3.664062 -0.851562 3.597656 -1.308594 3.726562 -1.898438 Z M 3.726562 -1.898438 "/></g></g></g><g fill="#3c81f6" fill-opacity="1"><g transform="translate(249.552508, 215.364106)"><g><path d="M 14.910156 -21.515625 L 14.910156 -26.683594 C 14.910156 -27.925781 14.453125 -29.039062 13.539062 -29.953125 C 12.621094 -30.867188 11.511719 -31.328125 10.269531 -31.328125 L 7.0625 -31.328125 L 7.0625 -16.875 L 10.269531 -16.875 C 11.511719 -16.875 12.621094 -17.332031 13.539062 -18.246094 C 14.453125 -19.164062 14.910156 -20.207031 14.910156 -21.515625 Z M 14.125 -13.929688 L 18.902344 -1.898438 C 19.097656 -1.308594 19.097656 -0.851562 18.902344 -0.523438 C 18.640625 -0.128906 18.246094 0 17.65625 0 C 17.003906 0 16.414062 -0.128906 15.890625 -0.523438 C 15.367188 -0.851562 14.976562 -1.308594 14.78125 -1.898438 L 10.332031 -13.078125 L 7.0625 -13.078125 L 7.0625 -1.898438 C 7.0625 -1.308594 6.867188 -0.851562 6.539062 -0.523438 C 6.148438 -0.128906 5.691406 0 5.167969 0 C 4.578125 0 4.121094 -0.128906 3.792969 -0.523438 C 3.402344 -0.851562 3.269531 -1.308594 3.269531 -1.898438 L 3.269531 -31.914062 C 3.269531 -32.894531 3.53125 -33.679688 4.121094 -34.269531 C 4.707031 -34.859375 5.492188 -35.183594 6.539062 -35.183594 L 10.269531 -35.183594 C 11.445312 -35.183594 12.492188 -34.921875 13.539062 -34.53125 C 14.585938 -34.074219 15.433594 -33.484375 16.21875 -32.699219 C 17.003906 -31.914062 17.59375 -31.066406 18.050781 -30.019531 C 18.441406 -28.972656 18.703125 -27.925781 18.703125 -26.75 L 18.703125 -21.515625 C 18.703125 -19.816406 18.3125 -18.3125 17.527344 -17.003906 C 16.742188 -15.695312 15.566406 -14.648438 14.125 -13.929688 Z M 14.125 -13.929688 "/></g></g></g><g fill="#3c81f6" fill-opacity="1"><g transform="translate(272.504177, 215.364106)"><g><path d="M 13.472656 0 C 12.882812 0 12.425781 -0.128906 12.097656 -0.523438 C 11.707031 -0.851562 11.574219 -1.308594 11.574219 -1.898438 L 11.574219 -14.453125 L 4.054688 -33.355469 C 3.792969 -33.878906 3.792969 -34.335938 4.054688 -34.726562 C 4.316406 -35.054688 4.707031 -35.25 5.363281 -35.25 C 5.953125 -35.25 6.539062 -35.054688 7.0625 -34.726562 C 7.585938 -34.335938 7.914062 -33.878906 8.175781 -33.355469 L 13.472656 -19.945312 L 18.769531 -33.355469 C 18.964844 -33.878906 19.359375 -34.335938 19.882812 -34.726562 C 20.40625 -35.054688 20.992188 -35.25 21.648438 -35.25 C 22.234375 -35.25 22.628906 -35.054688 22.890625 -34.726562 C 23.085938 -34.335938 23.085938 -33.878906 22.890625 -33.355469 L 15.367188 -14.453125 L 15.367188 -1.898438 C 15.367188 -1.308594 15.171875 -0.851562 14.847656 -0.523438 C 14.453125 -0.128906 13.996094 0 13.472656 0 Z M 13.472656 0 "/></g></g></g><g fill="#9134ea" fill-opacity="1"><g transform="translate(306.867553, 217.701188)"><g><path d="M 18.550781 -38.398438 C 17.441406 -38.398438 16.464844 -38.074219 15.621094 -37.554688 C 14.773438 -36.96875 14.1875 -36.1875 13.863281 -35.273438 L 2.148438 -3.90625 C 2.019531 -3.515625 1.953125 -3.1875 1.953125 -2.796875 C 1.953125 -1.953125 2.210938 -1.300781 2.734375 -0.78125 C 3.253906 -0.261719 3.90625 0 4.75 0 C 6.117188 0 7.027344 -0.585938 7.484375 -1.757812 L 10.152344 -9.046875 L 27.007812 -9.046875 L 29.679688 -1.757812 C 30.070312 -0.585938 30.980469 0 32.410156 0 C 33.191406 0 33.910156 -0.261719 34.429688 -0.78125 C 34.949219 -1.300781 35.210938 -1.953125 35.210938 -2.796875 C 35.210938 -3.1875 35.144531 -3.515625 35.015625 -3.90625 L 23.300781 -35.273438 C 22.910156 -36.1875 22.324219 -36.96875 21.476562 -37.554688 C 20.566406 -38.074219 19.589844 -38.398438 18.550781 -38.398438 Z M 12.171875 -14.382812 L 18.550781 -31.761719 L 24.992188 -14.382812 Z M 12.171875 -14.382812 "/></g></g></g><g fill="#9134ea" fill-opacity="1"><g transform="translate(344.027403, 217.701188)"><g><path d="M 4.230469 -35.535156 L 4.230469 -2.863281 C 4.230469 -2.082031 4.492188 -1.367188 5.011719 -0.847656 C 5.53125 -0.261719 6.246094 0 7.027344 0 C 7.808594 0 8.460938 -0.261719 9.046875 -0.847656 C 9.566406 -1.367188 9.894531 -2.082031 9.894531 -2.863281 L 9.894531 -35.535156 C 9.894531 -36.316406 9.566406 -36.96875 9.046875 -37.554688 C 8.460938 -38.074219 7.808594 -38.398438 7.027344 -38.398438 C 6.246094 -38.398438 5.53125 -38.074219 5.011719 -37.554688 C 4.492188 -36.96875 4.230469 -36.316406 4.230469 -35.535156 Z M 4.230469 -35.535156 "/></g></g></g></svg>